<svg width="22" height="20" viewBox="0 0 22 20" fill="none" xmlns="http://www.w3.org/2000/svg">
<path d="M5.8 3.88V4.88C6.15567 4.88 6.48457 4.69109 6.66378 4.38387L5.8 3.88ZM7.48 1V0C7.12433 0 6.79543 0.188911 6.61622 0.496129L7.48 1ZM13.72 1L14.5838 0.496129C14.4046 0.188911 14.0757 0 13.72 0V1ZM15.4 3.88L14.5362 4.38387C14.7154 4.69109 15.0443 4.88 15.4 4.88V3.88ZM2 16.12V6.28H0V16.12H2ZM3.4 4.88H5.8V2.88H3.4V4.88ZM6.66378 4.38387L8.34378 1.50387L6.61622 0.496129L4.93622 3.37613L6.66378 4.38387ZM7.48 2H13.72V0H7.48V2ZM12.8562 1.50387L14.5362 4.38387L16.2638 3.37613L14.5838 0.496129L12.8562 1.50387ZM15.4 4.88H17.8V2.88H15.4V4.88ZM19.2 6.28V16.12H21.2V6.28H19.2ZM19.2 16.12C19.2 16.8932 18.5732 17.52 17.8 17.52V19.52C19.6778 19.52 21.2 17.9978 21.2 16.12H19.2ZM17.8 4.88C18.5732 4.88 19.2 5.5068 19.2 6.28H21.2C21.2 4.40223 19.6778 2.88 17.8 2.88V4.88ZM2 6.28C2 5.5068 2.6268 4.88 3.4 4.88V2.88C1.52223 2.88 0 4.40223 0 6.28H2ZM3.4 17.52C2.6268 17.52 2 16.8932 2 16.12H0C0 17.9978 1.52223 19.52 3.4 19.52V17.52ZM13.2 10.6C13.2 12.0359 12.0359 13.2 10.6 13.2V15.2C13.1405 15.2 15.2 13.1405 15.2 10.6H13.2ZM10.6 13.2C9.16406 13.2 8 12.0359 8 10.6H6C6 13.1405 8.05949 15.2 10.6 15.2V13.2ZM8 10.6C8 9.16406 9.16406 8 10.6 8V6C8.05949 6 6 8.05949 6 10.6H8ZM10.6 8C12.0359 8 13.2 9.16406 13.2 10.6H15.2C15.2 8.05949 13.1405 6 10.6 6V8ZM17.8 17.52H3.4V19.52H17.8V17.52Z" fill="current"/>
</svg>
