<svg width="28" height="28" viewBox="0 0 28 28" fill="none" xmlns="http://www.w3.org/2000/svg">
<path d="M10.6055 24.1074H17.3672V15.5761C17.3672 15.0371 17.0156 14.6855 16.4766 14.6855H11.5078C10.957 14.6855 10.6055 15.0371 10.6055 15.5761V24.1074ZM6.02344 25.3144H21.8789C23.543 25.3144 24.5156 24.3652 24.5156 22.7246V9.77539L22.6289 8.48633V22.2441C22.6289 23.0058 22.2188 23.4277 21.4805 23.4277H6.42188C5.67188 23.4277 5.26172 23.0058 5.26172 22.2441V8.49805L3.375 9.77539V22.7246C3.375 24.3652 4.34766 25.3144 6.02344 25.3144ZM0 12.2714C0 12.7519 0.375 13.2089 1.00781 13.2089C1.33594 13.2089 1.60547 13.0332 1.85156 12.8339L13.582 2.99024C13.8398 2.75586 14.1562 2.75586 14.4141 2.99024L26.1445 12.8339C26.3789 13.0332 26.6484 13.2089 26.9766 13.2089C27.5273 13.2089 27.9727 12.8691 27.9727 12.3066C27.9727 11.955 27.8555 11.7207 27.6094 11.5097L15.4102 1.25586C14.543 0.517578 13.4648 0.517578 12.5859 1.25586L0.375 11.5097C0.117188 11.7207 0 12.0019 0 12.2714ZM21.5742 6.98633L24.5156 9.4707V4.05664C24.5156 3.54102 24.1875 3.21289 23.6719 3.21289H22.418C21.9141 3.21289 21.5742 3.54102 21.5742 4.05664V6.98633Z" fill="current"/>
</svg>
