<svg width="25" height="24" viewBox="0 0 25 24" fill="none" xmlns="http://www.w3.org/2000/svg">
<path d="M1.78516 23.1036C2.07813 23.1036 2.38282 22.9981 2.75782 22.7872L8.72266 19.5762L15.2031 23.209C15.625 23.4434 16.082 23.5606 16.5156 23.5606C16.9257 23.5606 17.3359 23.4551 17.6875 23.2559L23.8164 19.7754C24.5195 19.3887 24.8359 18.8262 24.8359 18.0411V2.25586C24.8359 1.38867 24.3554 0.908203 23.5117 0.908203C23.2187 0.908203 22.914 1.00195 22.5273 1.21289L16.3164 4.66992L9.95313 0.767578C9.58985 0.556641 9.17969 0.439453 8.76953 0.439453C8.34766 0.439453 7.92578 0.556641 7.5625 0.767578L1.46875 4.23633C0.777344 4.63476 0.460938 5.19726 0.460938 5.98242V21.7442C0.460938 22.6114 0.941406 23.1036 1.78516 23.1036ZM7.96094 17.7129L2.67578 20.6192C2.61719 20.6426 2.5586 20.6778 2.5 20.6778C2.40625 20.6778 2.34766 20.6075 2.34766 20.4903V6.43945C2.34766 6.1582 2.45313 5.95898 2.73438 5.79492L7.53906 2.98242C7.69141 2.90039 7.82032 2.83007 7.96094 2.74804V17.7129ZM9.84766 17.9004V2.99414C9.96485 3.06445 10.1055 3.13476 10.2227 3.20507L15.4492 6.39257V21.0411C15.2851 20.9473 15.1093 20.8653 14.9336 20.7715L9.84766 17.9004ZM17.3359 21.252V6.27539L22.6211 3.39257C22.6797 3.35742 22.7382 3.33398 22.7851 3.33398C22.8906 3.33398 22.9492 3.40429 22.9492 3.52148V17.5723C22.9492 17.8653 22.832 18.0645 22.5625 18.2286L17.8632 20.959C17.6875 21.0645 17.5117 21.17 17.3359 21.252Z" fill="current"/>
</svg>
