<svg width="21" height="19" viewBox="0 0 21 19" fill="none" xmlns="http://www.w3.org/2000/svg">
<path d="M3.66667 19C4.77779 19 7.5463 17.8062 9.1204 16.6945C9.2778 16.5851 9.40738 16.5395 9.53704 16.5395C9.65745 16.5486 9.77779 16.5578 9.89812 16.5578C16.5741 16.5578 21 12.8216 21 8.28342C21 3.69976 16.3334 0 10.5 0C4.66667 0 0 3.69976 0 8.28342C0 11.1995 1.82407 13.7602 4.7963 15.3275C4.93519 15.4005 4.98149 15.5372 4.90741 15.6738C4.38889 16.5122 3.46296 17.5146 3.11111 17.9703C2.75 18.4259 2.95371 19 3.66667 19Z" fill="current"/>
</svg>
