<svg width="25" height="24" viewBox="0 0 25 24" fill="none" xmlns="http://www.w3.org/2000/svg">
<path d="M12.5 23.9472C19.0391 23.9472 24.4531 18.5215 24.4531 11.9941C24.4531 5.45508 19.0274 0.0410156 12.4883 0.0410156C5.96093 0.0410156 0.546875 5.45508 0.546875 11.9941C0.546875 18.5215 5.97266 23.9472 12.5 23.9472ZM12.5 21.9551C6.96876 21.9551 2.55079 17.5254 2.55079 11.9941C2.55079 6.4629 6.95703 2.03321 12.4883 2.03321C18.0196 2.03321 22.461 6.4629 22.461 11.9941C22.461 17.5254 18.0313 21.9551 12.5 21.9551ZM20.5157 19.7168L20.4805 19.5879C19.9063 17.8652 16.8125 15.9785 12.5 15.9785C8.19922 15.9785 5.10546 17.8652 4.51954 19.5762L4.48438 19.7168C6.59375 21.8027 10.2148 23.0215 12.5 23.0215C14.7969 23.0215 18.3828 21.8144 20.5157 19.7168ZM12.5 13.9863C14.7617 14.0098 16.5196 12.0879 16.5196 9.56836C16.5196 7.20118 14.75 5.24414 12.5 5.24414C10.25 5.24414 8.46875 7.20118 8.48046 9.56836C8.49219 12.0879 10.25 13.9629 12.5 13.9863Z" fill="current"/>
</svg>
