<svg width="24" height="20" viewBox="0 0 24 20" fill="none" xmlns="http://www.w3.org/2000/svg">
<path d="M14.7891 5.5806C14.4858 5.37773 14.124 5.21291 13.7241 5.09938C13.3227 4.98585 12.8833 4.92285 12.4211 4.92285H9.98439C9.88698 4.92285 9.79393 4.93823 9.709 4.96532C9.62551 4.99316 9.54934 5.03198 9.48634 5.08105C9.42264 5.13013 9.37061 5.18798 9.33545 5.25173C9.29954 5.31618 9.27976 5.38649 9.27976 5.46046L9.26729 10.98C9.26654 11.0547 9.28632 11.1265 9.32223 11.1917C9.35739 11.2569 9.40867 11.3155 9.47237 11.3653C9.53607 11.4143 9.61225 11.4539 9.69648 11.4817C9.78147 11.5095 9.87447 11.5249 9.97262 11.5249H10.3271C10.4253 11.5249 10.5183 11.5095 10.6033 11.4817C10.6883 11.4539 10.7651 11.4143 10.8289 11.3653C10.8933 11.3154 10.9453 11.2568 10.9812 11.1917C11.0178 11.1265 11.0376 11.0547 11.0376 10.98L11.0391 9.42285H12.4211C12.884 9.42285 13.3257 9.35985 13.727 9.24562C14.1291 9.13134 14.4902 8.96582 14.7949 8.76149C15.0981 8.55787 15.3428 8.31543 15.5127 8.0459C15.6826 7.77637 15.7756 7.48045 15.7749 7.17065C15.7742 6.8601 15.6789 6.56418 15.5083 6.2954C15.3391 6.02591 15.0923 5.78423 14.7891 5.5806ZM13.8875 7.58451C13.8062 7.71196 13.6897 7.82695 13.5454 7.9229C13.4019 8.0196 13.2298 8.09793 13.0393 8.15141C12.8489 8.2056 12.6401 8.23565 12.4211 8.23565H11.0405L11.0435 6.10429H12.4212C12.6402 6.10429 12.8482 6.13434 13.0386 6.18852C13.2291 6.24201 13.4004 6.31963 13.544 6.41629C13.6883 6.51299 13.8055 6.62798 13.8868 6.75538C13.9674 6.88354 14.0113 7.02346 14.0113 7.17065C14.0127 7.31788 13.9673 7.45705 13.8875 7.58451Z" fill="current"/>
<path d="M12 0.583252C5.37305 0.583252 0 3.97072 0 8.14991V11.8501C0 16.0301 5.37305 19.4168 12 19.4168C18.627 19.4168 24 16.0301 24 11.8501V8.14991C24 3.97072 18.627 0.583252 12 0.583252ZM12 14.0935C6.375 14.0935 1.62305 11.3711 1.62305 8.14991C1.62305 4.928 6.375 2.2063 12 2.2063C17.625 2.2063 22.377 4.928 22.377 8.14991C22.377 11.3711 17.625 14.0935 12 14.0935Z" fill="current"/>
</svg>
