<svg width="104" height="50" viewBox="0 0 104 50" fill="none" xmlns="http://www.w3.org/2000/svg">
<path d="M1.12 39L6.36 12.92H14.6C16.3067 12.92 17.8267 13.1467 19.16 13.6C20.4933 14.0533 21.5467 14.7867 22.32 15.8C23.12 16.8133 23.52 18.16 23.52 19.84C23.52 22.2667 22.9733 24.2267 21.88 25.72C20.7867 27.1867 19.3333 28.2667 17.52 28.96C15.7067 29.6267 13.6933 29.96 11.48 29.96H8.4L6.64 39H1.12ZM9.32 25.6H12.08C14.0267 25.6 15.52 25.1867 16.56 24.36C17.6 23.5067 18.12 22.2667 18.12 20.64C18.12 19.4667 17.7333 18.6133 16.96 18.08C16.2133 17.5467 15.1333 17.28 13.72 17.28H10.92L9.32 25.6ZM30.1203 39.48C28.8936 39.48 27.6003 39.1467 26.2403 38.48C24.907 37.8133 23.827 36.8667 23.0003 35.64L26.1603 33C27.547 34.6533 28.9736 35.48 30.4403 35.48C31.2136 35.48 31.867 35.3067 32.4003 34.96C32.9603 34.5867 33.2403 34.1333 33.2403 33.6C33.2403 33.0133 32.947 32.5333 32.3603 32.16C31.7736 31.7867 30.8936 31.2667 29.7203 30.6C28.6803 30.0133 27.7603 29.2667 26.9603 28.36C26.187 27.4533 25.8003 26.3867 25.8003 25.16C25.8003 23.9067 26.1336 22.8 26.8003 21.84C27.4936 20.8533 28.4136 20.08 29.5603 19.52C30.7336 18.96 32.027 18.68 33.4403 18.68C34.8003 18.68 36.027 18.9733 37.1203 19.56C38.2136 20.1467 39.1603 20.8667 39.9603 21.72L37.0003 24.52C36.4936 24.04 35.9336 23.6267 35.3203 23.28C34.7336 22.9333 34.0936 22.76 33.4003 22.76C32.6536 22.76 32.0536 22.9467 31.6003 23.32C31.147 23.6667 30.9203 24.1067 30.9203 24.64C30.9203 25.2533 31.267 25.76 31.9603 26.16C32.6803 26.5333 33.427 26.9467 34.2003 27.4C35.3736 28.0133 36.3603 28.7467 37.1603 29.6C37.9603 30.4267 38.3603 31.5467 38.3603 32.96C38.3603 34.24 38.0003 35.3733 37.2803 36.36C36.587 37.3467 35.6136 38.12 34.3603 38.68C33.1336 39.2133 31.7203 39.48 30.1203 39.48ZM49.5534 39.48C47.1534 39.48 45.1934 38.7333 43.6734 37.24C42.1801 35.72 41.4334 33.64 41.4334 31C41.4334 29.16 41.7534 27.4933 42.3934 26C43.0334 24.48 43.8868 23.1733 44.9534 22.08C46.0468 20.9867 47.2468 20.1467 48.5534 19.56C49.8601 18.9733 51.1668 18.68 52.4734 18.68C54.0468 18.68 55.3001 19.0133 56.2334 19.68C57.1934 20.3467 57.8868 21.24 58.3134 22.36C58.7401 23.48 58.9534 24.7333 58.9534 26.12C58.9534 27.0267 58.8334 27.92 58.5934 28.8C58.3534 29.6533 58.1534 30.2267 57.9934 30.52H46.6334C46.5268 32.2267 46.9134 33.4667 47.7934 34.24C48.6734 34.9867 49.7668 35.36 51.0734 35.36C51.6868 35.36 52.3268 35.2133 52.9934 34.92C53.6601 34.6267 54.2468 34.3067 54.7534 33.96L56.6734 37.4C55.8734 37.96 54.8734 38.4533 53.6734 38.88C52.4734 39.28 51.1001 39.48 49.5534 39.48ZM47.0734 27.16H54.2734C54.4068 26.76 54.4734 26.3067 54.4734 25.8C54.4734 25 54.2734 24.32 53.8734 23.76C53.5001 23.1733 52.8068 22.88 51.7934 22.88C50.8601 22.88 49.9534 23.24 49.0734 23.96C48.1934 24.68 47.5268 25.7467 47.0734 27.16ZM69.3972 39.48C66.9972 39.48 65.0372 38.7333 63.5172 37.24C62.0239 35.72 61.2772 33.64 61.2772 31C61.2772 29.16 61.5972 27.4933 62.2372 26C62.8772 24.48 63.7305 23.1733 64.7972 22.08C65.8905 20.9867 67.0905 20.1467 68.3972 19.56C69.7039 18.9733 71.0105 18.68 72.3172 18.68C73.8905 18.68 75.1439 19.0133 76.0772 19.68C77.0372 20.3467 77.7305 21.24 78.1572 22.36C78.5839 23.48 78.7972 24.7333 78.7972 26.12C78.7972 27.0267 78.6772 27.92 78.4372 28.8C78.1972 29.6533 77.9972 30.2267 77.8372 30.52H66.4772C66.3705 32.2267 66.7572 33.4667 67.6372 34.24C68.5172 34.9867 69.6105 35.36 70.9172 35.36C71.5305 35.36 72.1705 35.2133 72.8372 34.92C73.5039 34.6267 74.0905 34.3067 74.5972 33.96L76.5172 37.4C75.7172 37.96 74.7172 38.4533 73.5172 38.88C72.3172 39.28 70.9439 39.48 69.3972 39.48ZM66.9172 27.16H74.1172C74.2505 26.76 74.3172 26.3067 74.3172 25.8C74.3172 25 74.1172 24.32 73.7172 23.76C73.3439 23.1733 72.6505 22.88 71.6372 22.88C70.7039 22.88 69.7972 23.24 68.9172 23.96C68.0372 24.68 67.3705 25.7467 66.9172 27.16ZM86.8009 39.48C85.0676 39.48 83.6943 38.8533 82.6809 37.6C81.6943 36.3467 81.2009 34.5467 81.2009 32.2C81.2009 30.3067 81.4943 28.5467 82.0809 26.92C82.6676 25.2667 83.4543 23.8267 84.4409 22.6C85.4543 21.3733 86.5876 20.4133 87.8409 19.72C89.1209 19.0267 90.4409 18.68 91.8009 18.68C92.7076 18.68 93.5076 18.9067 94.2009 19.36C94.9209 19.7867 95.4676 20.36 95.8409 21.08H95.9609L96.4409 17.32L97.6409 10.96H103.121L97.4809 39H93.0409L93.1209 36.4H93.0009C92.0943 37.3333 91.0943 38.08 90.0009 38.64C88.9076 39.2 87.8409 39.48 86.8009 39.48ZM89.2009 35C89.8676 35 90.5743 34.8 91.3209 34.4C92.0676 33.9733 92.7743 33.2 93.4409 32.08L94.8409 25.04C94.5209 24.3733 94.1076 23.8933 93.6009 23.6C93.1209 23.3067 92.6543 23.16 92.2009 23.16C91.2943 23.16 90.4276 23.5333 89.6009 24.28C88.8009 25 88.1476 25.9867 87.6409 27.24C87.1343 28.4933 86.8809 29.92 86.8809 31.52C86.8809 32.72 87.0809 33.6 87.4809 34.16C87.9076 34.72 88.4809 35 89.2009 35Z" fill="#40916C"/>
</svg>
