<svg width="27" height="26" viewBox="0 0 27 26" fill="none" xmlns="http://www.w3.org/2000/svg">
<path d="M0 22.0175C0 24.3496 1.16016 25.5566 3.53906 25.5566H22.9688C25.4297 25.5566 26.6484 24.3496 26.6484 21.9355V4.06445C26.6484 1.65039 25.4297 0.431641 22.9688 0.431641H8.84766C6.39844 0.431641 5.16797 1.65039 5.16797 4.06445V9.6543H2.36719C0.878906 9.6543 0 10.4628 0 11.8574V22.0175ZM1.88672 22.0175V12.2207C1.88672 11.7871 2.14453 11.541 2.57812 11.541H5.16797V22.0175C5.16797 22.9902 4.45312 23.6699 3.53906 23.6699C2.61328 23.6699 1.88672 22.955 1.88672 22.0175ZM6.65625 23.6699C6.91406 23.166 7.05469 22.58 7.05469 21.9004V4.16992C7.05469 2.95117 7.71094 2.31836 8.88281 2.31836H22.9336C24.1055 2.31836 24.7617 2.95117 24.7617 4.16992V21.83C24.7617 23.0488 24.1055 23.6699 22.9336 23.6699H6.65625ZM10.1016 7.41602H21.7383C22.1484 7.41602 22.4648 7.08789 22.4648 6.67773C22.4648 6.2793 22.1484 5.97461 21.7383 5.97461H10.1016C9.67969 5.97461 9.36328 6.2793 9.36328 6.67773C9.36328 7.08789 9.67969 7.41602 10.1016 7.41602ZM10.1016 11.541H21.7383C22.1484 11.541 22.4648 11.2246 22.4648 10.8261C22.4648 10.416 22.1484 10.0996 21.7383 10.0996H10.1016C9.67969 10.0996 9.36328 10.416 9.36328 10.8261C9.36328 11.2246 9.67969 11.541 10.1016 11.541ZM10.793 19.8964H13.8281C14.7188 19.8964 15.2578 19.3574 15.2578 18.4668V15.6777C15.2578 14.7754 14.7188 14.2363 13.8281 14.2363H10.793C9.89062 14.2363 9.35156 14.7754 9.35156 15.6777V18.4668C9.35156 19.3574 9.89062 19.8964 10.793 19.8964ZM17.3672 15.6777H21.7266C22.1484 15.6777 22.4531 15.373 22.4531 14.9746C22.4531 14.5527 22.1484 14.2363 21.7266 14.2363H17.3672C16.9453 14.2363 16.6406 14.5527 16.6406 14.9746C16.6406 15.373 16.9453 15.6777 17.3672 15.6777ZM17.3672 19.8964H21.7266C22.1484 19.8964 22.4531 19.5918 22.4531 19.1933C22.4531 18.7832 22.1484 18.455 21.7266 18.455H17.3672C16.9453 18.455 16.6406 18.7832 16.6406 19.1933C16.6406 19.5918 16.9453 19.8964 17.3672 19.8964Z" fill="current"/>
</svg>
