<svg width="20" height="20" viewBox="0 0 20 20" fill="none" xmlns="http://www.w3.org/2000/svg">
<path d="M9.49828 0.326989C9.70351 -0.108996 10.2965 -0.108996 10.5017 0.326989L13.1585 5.97087C13.24 6.144 13.3975 6.264 13.5797 6.29176L19.5203 7.1968C19.9793 7.26671 20.1625 7.85799 19.8304 8.19735L15.5317 12.5905C15.3999 12.7253 15.3397 12.9194 15.3708 13.1097L16.3856 19.3129C16.464 19.7921 15.9843 20.1576 15.5738 19.9313L10.2604 17.0026C10.0974 16.9127 9.90264 16.9127 9.73965 17.0026L4.42618 19.9313C4.01572 20.1576 3.53599 19.7921 3.61438 19.3129L4.62916 13.1097C4.66029 12.9194 4.60012 12.7253 4.46825 12.5905L0.169572 8.19735C-0.162497 7.85799 0.0207428 7.26671 0.479652 7.1968L6.42028 6.29176C6.60252 6.264 6.76005 6.144 6.84155 5.97087L9.49828 0.326989Z" fill="current"/>
</svg>
